<?xml version="1.0" encoding="utf-8"?>
<!-- Generator: Adobe Illustrator 24.0.2, SVG Export Plug-In . SVG Version: 6.00 Build 0)  -->
<svg version="1.1" id="Outline" xmlns="http://www.w3.org/2000/svg" xmlns:xlink="http://www.w3.org/1999/xlink" x="0px" y="0px"
	 viewBox="0 0 64 64" enable-background="new 0 0 64 64" xml:space="preserve">
<g>
	<path fill="#3b94d9" d="M50,24c2.20605,0,4-1.79443,4-4c0-1.85834-1.27948-3.41083-3-3.85803v-3.46484l9.37109-3.74841
		C60.75098,8.77637,61,8.40869,61,8s-0.24902-0.77637-0.62891-0.92871c0,0-9.98156-3.99261-10-4
		c-0.29694-0.11897-0.66568-0.07891-0.93164,0.10059C49.17511,3.35028,49,3.68047,49,4c0,0.00002,0,8,0,8v4.14197
		c-1.72052,0.4472-3,1.99969-3,3.85803C46,22.20557,47.79395,24,50,24z M51,10.52295v-5.0459L57.30762,8L51,10.52295z M49,18.27826
		V20c0,0.55225,0.44727,1,1,1s1-0.44775,1-1v-1.72174C51.59479,18.62518,52,19.263,52,20c0,1.10303-0.89746,2-2,2s-2-0.89697-2-2
		C48,19.263,48.40521,18.62518,49,18.27826z"/>
	<path fill="#3b94d9" d="M58.65997,43.07849c-0.42651-1.61816-1.24487-3.09698-2.44318-4.29529
		C54.42188,36.98828,52.03711,36,49.5,36h-6.50012l1.59973-1.2002c0.44238-0.33105,0.53223-0.95801,0.2002-1.39941
		c-0.33203-0.44336-0.95898-0.53174-1.39941-0.2002c0,0-3.99502,2.99627-4.00002,3.00001C39.16262,36.37854,39,36.70457,39,37
		c0,0.2881,0.16706,0.62568,0.40039,0.7998c0,0,3.99344,2.99508,3.99999,2.99999c0.42487,0.31865,1.06989,0.24083,1.39942-0.20019
		c0.33203-0.44141,0.24219-1.06836-0.2002-1.39941L42.99988,38H49.5c2.00293,0,3.88574,0.78027,5.30273,2.19727
		c0.88226,0.88226,1.50732,1.9552,1.86261,3.13013C55.68256,43.82062,55,44.82745,55,46c0,1.05212,0.54675,1.97571,1.36859,2.51135
		c-0.74414,1.68579-2.08392,3.05463-3.78168,3.82361c-0.50291,0.22851-0.72557,0.82125-0.49807,1.32417
		c0.2211,0.48877,0.83614,0.71898,1.32424,0.49809c2.26349-1.0271,4.02032-2.89813,4.92542-5.19141
		C59.83197,48.79517,61,47.53839,61,46C61,44.57312,59.99683,43.38068,58.65997,43.07849z M58,47c-0.55176,0-1-0.44824-1-1
		s0.44824-1,1-1s1,0.44824,1,1S58.55176,47,58,47z"/>
	<path fill="#3b94d9" d="M24,9h1c0.55273,0,1-0.44775,1-1s-0.44727-1-1-1h-1c-0.55273,0-1,0.44775-1,1S23.44727,9,24,9z"/>
	<path fill="#3b94d9" d="M29,9h1c0.55273,0,1-0.44775,1-1s-0.44727-1-1-1h-1c-0.55273,0-1,0.44775-1,1S28.44727,9,29,9z"/>
	<path fill="#3b94d9" d="M34,9h3.00012l-1.59973,1.2002c-0.44238,0.33105-0.53223,0.958-0.2002,1.3999
		c0.32668,0.43479,0.96427,0.52726,1.39942,0.19971c0,0,4-3,4.00004-3.00003C40.83798,8.62141,41,8.29646,41,8
		c0-0.28332-0.16584-0.62432-0.40039-0.7998l-4-3c-0.44043-0.33105-1.06836-0.24072-1.39941,0.19971
		c-0.33203,0.44189-0.24219,1.06885,0.2002,1.3999L37.00012,7H34c-0.55273,0-1,0.44775-1,1S33.44727,9,34,9z"/>
	<path fill="#3b94d9" d="M28.83223,29.4385c-0.26627-0.3965-0.802-0.52497-1.23651-0.34868C27.23014,29.23814,27,29.61024,27,30
		c0,0.54405,0.45708,1,1,1c0.41243,0,0.76293-0.24153,0.91991-0.62008C29.04262,30.08399,29.01807,29.71523,28.83223,29.4385z"/>
	<path fill="#3b94d9" d="M49,53h-1c-0.55273,0-1,0.44727-1,1s0.44727,1,1,1h1c0.55273,0,1-0.44727,1-1S49.55273,53,49,53z"/>
	<path fill="#3b94d9" d="M44,53h-1c-0.55273,0-1,0.44727-1,1s0.44727,1,1,1h1c0.55273,0,1-0.44727,1-1S44.55273,53,44,53z"/>
	<path fill="#3b94d9" d="M39,53h-1c-0.55273,0-1,0.44727-1,1s0.44727,1,1,1h1c0.55273,0,1-0.44727,1-1S39.55273,53,39,53z"/>
	<path fill="#3b94d9" d="M35,54c0-0.28832-0.16734-0.62523-0.40039-0.7998l-4-3c-0.44141-0.33105-1.06836-0.24219-1.39941,0.2002
		c-0.33203,0.44141-0.24219,1.06836,0.2002,1.39941L31.00012,53h-3.18439C27.40161,51.8385,26.30194,51,25,51
		c-1.6543,0-3,1.3457-3,3s1.3457,3,3,3c1.30194,0,2.40161-0.8385,2.81573-2h3.18439l-1.59973,1.2002
		c-0.4423,0.33099-0.53219,0.95777-0.20038,1.39916c0.29906,0.39783,0.9692,0.52325,1.3996,0.20045c0,0,4-3,4.00003-3.00002
		C34.83808,54.62172,35,54.29576,35,54z M25,55c-0.55176,0-1-0.44824-1-1s0.44824-1,1-1s1,0.44824,1,1S25.55176,55,25,55z"/>
	<path fill="#3b94d9" d="M36,36h-5.18427C30.51367,35.15283,29.84717,34.48633,29,34.18427V33c0-0.55225-0.44727-1-1-1
		s-1,0.44775-1,1v1.18427C25.8385,34.59839,25,35.69806,25,37c0,1.6543,1.3457,3,3,3c1.30194,0,2.40161-0.8385,2.81573-2H36
		c0.55273,0,1-0.44727,1-1S36.55273,36,36,36z M28,38c-0.55176,0-1-0.44824-1-1s0.44824-1,1-1s1,0.44824,1,1S28.55176,38,28,38z"/>
	<path fill="#3b94d9" d="M38.70703,21.29297c-0.39063-0.39063-1.02344-0.39063-1.41406,0s-0.39063,1.02344,0,1.41406L38.58594,24
		l-1.29297,1.29297c-0.3906,0.3906-0.39063,1.02335-0.00008,1.41398c0.37279,0.37288,1.02924,0.38498,1.41415,0.00008L40,25.41406
		c0,0,1.29273,1.29273,1.29297,1.29297c0.37648,0.37647,1.02385,0.39022,1.41406,0c0.39063-0.39063,0.39063-1.02344,0-1.41406
		L41.41406,24l1.29297-1.29297c0.39063-0.39063,0.39063-1.02344,0-1.41406s-1.02344-0.39063-1.41406,0L40,22.58594
		L38.70703,21.29297z"/>
	<path fill="#3b94d9" d="M22.70703,32.70703c0.39063-0.39063,0.39063-1.02344,0-1.41406L21.41406,30l1.29297-1.29297
		c0.39063-0.39063,0.39063-1.02344,0-1.41406s-1.02344-0.39063-1.41406,0L20,28.58594l-1.29297-1.29297
		c-0.39063-0.39063-1.02344-0.39063-1.41406,0s-0.39063,1.02344,0,1.41406L18.58594,30l-1.29297,1.29297
		c-0.39061,0.39061-0.39063,1.02339-0.00005,1.41402c0.38288,0.38293,1.03254,0.38161,1.41411,0.00005L20,31.41406
		c0,0,1.29294,1.29293,1.29297,1.29297C21.66971,33.08379,22.31622,33.09784,22.70703,32.70703z"/>
	<path fill="#3b94d9" d="M15.29297,13.29297c-0.39063,0.39063-0.39063,1.02344,0,1.41406L16.58594,16l-1.29297,1.29297
		c-0.39061,0.39061-0.39063,1.02337-0.00006,1.41401c0.37096,0.37102,1.03101,0.38317,1.41412,0.00006L18,17.41406
		c0,0,1.29296,1.29296,1.29297,1.29297c0.37671,0.37645,1.02361,0.39046,1.41406,0c0.39063-0.39063,0.39063-1.02344,0-1.41406
		L19.41406,16l1.29297-1.29297c0.39063-0.39063,0.39063-1.02344,0-1.41406s-1.02344-0.39063-1.41406,0L18,14.58594l-1.29297-1.29297
		C16.31641,12.90234,15.68359,12.90234,15.29297,13.29297z"/>
	<path fill="#3b94d9" d="M45.70703,44.29297c-0.39063-0.39063-1.02344-0.39063-1.41406,0L43,45.58594l-1.29297-1.29297
		c-0.39063-0.39063-1.02344-0.39063-1.41406,0s-0.39063,1.02344,0,1.41406L41.58594,47l-1.29297,1.29297
		c-0.39062,0.39062-0.39063,1.02342-0.00002,1.41405c0.38601,0.38602,1.02825,0.38584,1.41408,0.00002L43,48.41406
		c0,0,1.29232,1.29232,1.29297,1.29297c0.38601,0.38601,1.02824,0.38582,1.41406,0c0.39063-0.39063,0.39063-1.02344,0-1.41406
		L44.41406,47l1.29297-1.29297C46.09766,45.31641,46.09766,44.68359,45.70703,44.29297z"/>
	<path fill="#3b94d9" d="M19,9h1c0.55273,0,1-0.44775,1-1s-0.44727-1-1-1h-1c-0.55273,0-1,0.44775-1,1S18.44727,9,19,9z"/>
	<path fill="#3b94d9" d="M13.5,24H16c0.55273,0,1-0.44775,1-1s-0.44727-1-1-1h-2.5c-2.4671,0-4.68433-1.39856-5.7771-3.55151
		C8.49292,17.90491,9,17.01221,9,16c0-1.15729-0.66559-2.15204-1.62775-2.65222c0.32178-0.91412,0.84076-1.74707,1.53497-2.44055
		C10.13672,9.67725,11.76758,9,13.5,9H15c0.55273,0,1-0.44775,1-1s-0.44727-1-1-1h-1.5c-2.2666,0-4.40039,0.88525-6.00684,2.49316
		C6.49225,10.49365,5.78351,11.72229,5.38,13.06604C4.02258,13.35266,3,14.55841,3,16c0,1.57892,1.22986,2.86273,2.77985,2.97772
		C7.13586,22.00256,10.13501,24,13.5,24z M5,16c0-0.55127,0.44824-1,1-1s1,0.44873,1,1s-0.44824,1-1,1S5,16.55127,5,16z"/>
	<path fill="#3b94d9" d="M22,24h3.18433c0.30206,0.84717,0.96851,1.51361,1.81567,1.81567V27c0,0.55225,0.44727,1,1,1s1-0.44775,1-1
		v-1.18427c1.1615-0.41412,2-1.51379,2-2.81573c0-1.6543-1.3457-3-3-3c-1.30194,0-2.40161,0.8385-2.81573,2H22
		c-0.55273,0-1,0.44775-1,1S21.44727,24,22,24z M28,22c0.55176,0,1,0.44873,1,1s-0.44824,1-1,1s-1-0.44873-1-1S27.44824,22,28,22z"
		/>
	<path fill="#3b94d9" d="M18.6875,36.89355c-1.44238-1.62305-3.51562-2.55469-5.6875-2.55469s-4.24512,0.93164-5.6875,2.55469
		c-0.00781,0.00879-0.01562,0.01758-0.02343,0.02637c-2.08691,2.36914-2.49219,5.8252-1.00586,8.6123l3.53448,6.62695
		C8.68298,53.09979,8,54.4939,8,56c0,2.75684,2.24316,5,5,5s5-2.24316,5-5c0-1.5061-0.68292-2.90015-1.81769-3.84082
		l3.53448-6.62695c1.48633-2.78711,1.08105-6.24316-1.00586-8.61133C18.70313,36.91113,18.69531,36.90234,18.6875,36.89355z M16,56
		c0,1.6543-1.3457,3-3,3s-3-1.3457-3-3c0-0.75989,0.29266-1.47229,0.79041-2.01697l1.32678,2.48767
		C12.29102,56.79688,12.63086,57,13,57s0.70898-0.20313,0.88281-0.5293l1.32678-2.48767C15.70734,54.52771,16,55.24011,16,56z
		 M17.95117,44.59082l-3.94348,7.39459c-0.00256,0.00458-0.00714,0.00702-0.00964,0.01166
		c-0.0025,0.00476-0.00201,0.01001-0.00446,0.01477L13,53.875l-0.99359-1.86316c-0.00244-0.00476-0.00195-0.01001-0.00446-0.01477
		c-0.0025-0.00464-0.00708-0.00708-0.00964-0.01166l-3.94348-7.39459c-1.10059-2.06152-0.7959-4.62012,0.75684-6.36719
		c0.00683-0.00684,0.01367-0.01465,0.02051-0.02344c1.0625-1.18262,2.58301-1.86133,4.17383-1.86133
		s3.11035,0.67871,4.17383,1.86133c0.00684,0.00781,0.01367,0.01563,0.02051,0.02344
		C18.74707,39.9707,19.05176,42.5293,17.95117,44.59082z"/>
	<path fill="#3b94d9" d="M13,39c-1.6543,0-3,1.3457-3,3s1.3457,3,3,3s3-1.3457,3-3S14.6543,39,13,39z M13,43
		c-0.55176,0-1-0.44824-1-1s0.44824-1,1-1s1,0.44824,1,1S13.55176,43,13,43z"/>
</g>
</svg>
