<?xml version="1.0" encoding="utf-8"?>
<!-- Generator: Adobe Illustrator 24.0.2, SVG Export Plug-In . SVG Version: 6.00 Build 0)  -->
<svg version="1.1" id="Outline" xmlns="http://www.w3.org/2000/svg" xmlns:xlink="http://www.w3.org/1999/xlink" x="0px" y="0px"
	 viewBox="0 0 64 64" enable-background="new 0 0 64 64" xml:space="preserve">
<g>
	<path fill="#3b94d9" d="M58,11h-4c-1.6543,0-3,1.3457-3,3v29c0,0.11621,0.02051,0.23242,0.06006,0.3418l4,11
		C55.2041,54.7373,55.57959,55,56,55s0.7959-0.2627,0.93994-0.6582l4-11C60.97949,43.23242,61,43.11621,61,43V14
		C61,12.3457,59.6543,11,58,11z M57,42V23h2v19H57z M53,42V23h2v19H53z M53,21v-2h6v2H53z M54,13h4c0.55127,0,1,0.44824,1,1v3h-6v-3
		C53,13.44824,53.44873,13,54,13z M56,51.07422L53.42755,44h5.1449L56,51.07422z"/>
	<path fill="#3b94d9" d="M46.92224,13.61481c-0.05078-0.12164-0.12421-0.23108-0.21606-0.32269L36.7077,3.29364
		c-0.09167-0.09186-0.20129-0.16528-0.32294-0.21606c-0.00171-0.00067-0.00336-0.00122-0.005-0.00195
		C36.25824,3.0257,36.12933,3,36,3H12c-1.6543,0-3,1.3457-3,3v3H6c-1.6543,0-3,1.3457-3,3v46c0,1.6543,1.3457,3,3,3h32
		c1.6543,0,3-1.3457,3-3v-3h3c1.6543,0,3-1.3457,3-3V14c0-0.12927-0.0257-0.25824-0.07556-0.3797
		C46.92365,13.61847,46.92297,13.61664,46.92224,13.61481z M37,6.41406L43.58594,13H37V6.41406z M39,58c0,0.55176-0.44873,1-1,1H6
		c-0.55127,0-1-0.44824-1-1V12c0-0.55176,0.44873-1,1-1h3v41c0,1.6543,1.3457,3,3,3h27V58z M44,53H12c-0.55127,0-1-0.44824-1-1V6
		c0-0.55176,0.44873-1,1-1h23v9c0,0.55273,0.44775,1,1,1h9v37C45,52.55176,44.55127,53,44,53z"/>
	<path fill="#3b94d9" d="M15,10h6c0.55225,0,1-0.44727,1-1s-0.44775-1-1-1h-6c-0.55225,0-1,0.44727-1,1S14.44775,10,15,10z"/>
	<path fill="#3b94d9" d="M15,15h10c0.55225,0,1-0.44727,1-1s-0.44775-1-1-1H15c-0.55225,0-1,0.44727-1,1S14.44775,15,15,15z"/>
	<path fill="#3b94d9" d="M15,22h18c0.55225,0,1-0.44727,1-1s-0.44775-1-1-1H15c-0.55225,0-1,0.44727-1,1S14.44775,22,15,22z"/>
	<path fill="#3b94d9" d="M15,27h9c0.55225,0,1-0.44727,1-1s-0.44775-1-1-1h-9c-0.55225,0-1,0.44727-1,1S14.44775,27,15,27z"/>
	<path fill="#3b94d9" d="M15,32h9c0.55225,0,1-0.44727,1-1s-0.44775-1-1-1h-9c-0.55225,0-1,0.44727-1,1S14.44775,32,15,32z"/>
	<path fill="#3b94d9" d="M15,37h13c0.55225,0,1-0.44727,1-1s-0.44775-1-1-1H15c-0.55225,0-1,0.44727-1,1S14.44775,37,15,37z"/>
	<path fill="#3b94d9" d="M36,41c0-0.55273-0.44775-1-1-1H15c-0.55225,0-1,0.44727-1,1s0.44775,1,1,1h20
		C35.55225,42,36,41.55273,36,41z"/>
	<path fill="#3b94d9" d="M41,48h-6c-0.55225,0-1,0.44727-1,1s0.44775,1,1,1h6c0.55225,0,1-0.44727,1-1S41.55225,48,41,48z"/>
</g>
</svg>
