<?xml version="1.0" encoding="utf-8"?>
<!-- Generator: Adobe Illustrator 24.0.2, SVG Export Plug-In . SVG Version: 6.00 Build 0)  -->
<svg version="1.1" id="Outline" xmlns="http://www.w3.org/2000/svg" xmlns:xlink="http://www.w3.org/1999/xlink" x="0px" y="0px"
	 viewBox="0 0 64 64" enable-background="new 0 0 64 64" xml:space="preserve">
<g>
	<path fill="#3b94d9" d="M32,31.00049c1.6543,0,3-1.3457,3-3s-1.3457-3-3-3s-3,1.3457-3,3S30.3457,31.00049,32,31.00049z
		 M32,27.00049c0.55176,0,1,0.44873,1,1s-0.44824,1-1,1s-1-0.44873-1-1S31.44824,27.00049,32,27.00049z"/>
	<path fill="#3b94d9" d="M57,24.00049c-1.8587,0-3.41083,1.27972-3.85797,3h-7.19171c-0.14966-2.14148-0.77393-4.17938-1.83026-6H54
		c1.10254,0,2-0.89697,2-2v-4.09033c2.83313-0.47833,5-2.94244,5-5.90967c0-3.30859-2.69141-6-6-6s-6,2.69141-6,6
		c0,2.96722,2.16687,5.43134,5,5.90967v4.09033H42.72284c-0.31787-0.37689-0.65509-0.74121-1.01581-1.08838
		c-2.76758-2.6626-6.41406-4.04248-10.25586-3.90088c-4.052,0.15533-7.68146,2.06812-10.14679,4.98926H10v-4.09033
		c2.83313-0.47833,5-2.94244,5-5.90967c0-3.30859-2.69141-6-6-6s-6,2.69141-6,6c0,2.96722,2.16687,5.43134,5,5.90967v4.09033
		c0,1.10303,0.89746,2,2,2h9.8985c-1.04413,1.79102-1.69427,3.82983-1.84869,6h-7.19183c-0.44714-1.72028-1.99927-3-3.85797-3
		c-2.20605,0-4,1.79443-4,4s1.79395,4,4,4c1.8587,0,3.41083-1.27972,3.85797-3h7.18976c0.15314,2.11853,0.78607,4.16931,1.84442,6
		H14c-1.10254,0-2,0.89697-2,2v5.10107c-2.2793,0.46466-4,2.4845-4,4.89893c0,2.75684,2.24316,5,5,5s5-2.24316,5-5
		c0-2.41443-1.7207-4.43427-4-4.89893v-5.10107h7.24432c1.58368,2.16321,2.51416,4.54919,2.71136,7.00446
		C22.87402,44.02911,22,44.91266,22,46.00049v2c0,0.36591,0.10596,0.70465,0.2782,1c-0.17224,0.29535-0.2782,0.63409-0.2782,1v2
		c0,1.10303,0.89746,2,2,2h0.06946c0.49463,3.93994,3.85876,7,7.93054,7s7.43591-3.06006,7.93054-7H40c1.10254,0,2-0.89697,2-2v-2
		c0-0.36591-0.10596-0.70465-0.2782-1c0.17224-0.29535,0.2782-0.63409,0.2782-1v-2c0-1.0885-0.875-1.97253-1.95752-1.99573
		c0.19244-2.48633,1.13593-4.92914,2.70361-7.00427H50v5.10107c-2.2793,0.46466-4,2.4845-4,4.89893c0,2.75684,2.24316,5,5,5
		s5-2.24316,5-5c0-2.41443-1.7207-4.43427-4-4.89893v-5.10107c0-1.10303-0.89746-2-2-2h-5.8819
		c1.06567-1.83136,1.6922-3.86328,1.8407-6h7.18323c0.44714,1.72028,1.99927,3,3.85797,3c2.20605,0,4-1.79443,4-4
		S59.20605,24.00049,57,24.00049z M51,9.00049c0-2.20557,1.79395-4,4-4s4,1.79443,4,4s-1.79395,4-4,4S51,11.20605,51,9.00049z
		 M5,9.00049c0-2.20557,1.79395-4,4-4s4,1.79443,4,4s-1.79395,4-4,4S5,11.20605,5,9.00049z M16,47.00049c0,1.6543-1.3457,3-3,3
		s-3-1.3457-3-3s1.3457-3,3-3S16,45.34619,16,47.00049z M54,47.00049c0,1.6543-1.3457,3-3,3s-3-1.3457-3-3s1.3457-3,3-3
		S54,45.34619,54,47.00049z M31.52734,16.01025c3.27637-0.12988,6.4209,1.06006,8.79297,3.34326
		C42.69336,21.63721,44,24.70801,44,28.00049c0,2.74365-0.90137,5.32471-2.60645,7.46387
		c-1.98145,2.48779-3.15723,5.48682-3.36133,8.53613H33v-7h1c0.50391,0,0.92969-0.37549,0.99219-0.87598l0.30176-2.41748
		l2.24512,0.94727c0.46191,0.19482,1.00293,0.01709,1.25488-0.42139l2-3.46436c0.25195-0.43652,0.13965-0.99268-0.2627-1.29736
		l-1.94238-1.4707l1.94238-1.47021c0.40234-0.30469,0.51465-0.86084,0.2627-1.29736l-2-3.46436
		c-0.25293-0.43799-0.79395-0.6167-1.25488-0.42139l-2.24512,0.94727l-0.30176-2.41797
		c-0.0625-0.50049-0.48828-0.87598-0.99219-0.87598h-4c-0.50391,0-0.92969,0.37549-0.99219,0.87598l-0.30176,2.41797
		l-2.24512-0.94727c-0.45996-0.19434-1.00195-0.01611-1.25488,0.42139l-2,3.46436c-0.25195,0.43701-0.13965,0.99316,0.2627,1.29736
		l1.94238,1.47021l-1.94238,1.4707c-0.40234,0.3042-0.51465,0.86035-0.2627,1.29736l2,3.46436
		c0.25195,0.4375,0.79395,0.61572,1.25488,0.42139l2.24512-0.94727l0.30176,2.41748C29.07031,36.625,29.49609,37.00049,30,37.00049
		h1v7h-5.03223c-0.20605-3.03418-1.38379-6.00049-3.4375-8.63232c-1.73828-2.22754-2.63379-5.01807-2.52051-7.85791
		c0.10114-2.54169,1.01782-4.88147,2.47986-6.7843c0.05249-0.04919,0.08844-0.11047,0.12933-0.16986
		C24.73254,17.90308,27.93347,16.14783,31.52734,16.01025z M40,48.00049H24v-2h1h14h1l0.00195,2H40z M27.67188,27.20313
		l-2.29199-1.73486l1.11719-1.93506l2.64844,1.11768c0.28809,0.12158,0.61523,0.10107,0.88867-0.05518
		c0.27148-0.15674,0.45313-0.43164,0.49219-0.74219l0.35645-2.85303h2.23438l0.35645,2.85303
		c0.03906,0.31055,0.2207,0.58545,0.49219,0.74219c0.27148,0.15625,0.59961,0.17725,0.88867,0.05518l2.64844-1.11768
		l1.11719,1.93506l-2.29102,1.73486c-0.25,0.18896-0.39648,0.48438-0.39648,0.79736s0.14648,0.6084,0.39648,0.79736l2.29102,1.73486
		l-1.11719,1.93555l-2.64844-1.11768c-0.29004-0.12207-0.61816-0.10205-0.88867,0.05518
		c-0.27148,0.15674-0.45313,0.43164-0.49219,0.74219l-0.35645,2.85254h-2.23438l-0.35645-2.85254
		c-0.03906-0.31055-0.2207-0.58545-0.49219-0.74219c-0.27148-0.15723-0.59961-0.17676-0.88867-0.05518l-2.64844,1.11768
		l-1.11719-1.93506l2.29199-1.73535c0.25-0.18896,0.39648-0.48438,0.39648-0.79736
		C28.06836,27.68701,27.92188,27.39209,27.67188,27.20313z M7,30.00049c-1.10254,0-2-0.89697-2-2s0.89746-2,2-2s2,0.89697,2,2
		S8.10254,30.00049,7,30.00049z M32,59.00049c-2.96777,0-5.43945-2.16602-5.91699-5h11.83398
		C37.43945,56.83447,34.96777,59.00049,32,59.00049z M39,52.00049H25h-1v-2h16l0.00195,2H39z M57,30.00049c-1.10254,0-2-0.89697-2-2
		s0.89746-2,2-2s2,0.89697,2,2S58.10254,30.00049,57,30.00049z"/>
	<path fill="#3b94d9" d="M32,12.00049c0.55273,0,1-0.44775,1-1v-3c0-0.55225-0.44727-1-1-1s-1,0.44775-1,1v3
		C31,11.55273,31.44727,12.00049,32,12.00049z"/>
	<path fill="#3b94d9" d="M40.7998,14.6377c0.16895,0.11182,0.36035,0.16504,0.54883,0.16504
		c0.3252,0,0.64355-0.1582,0.83594-0.44971l1.65039-2.50537c0.30371-0.46143,0.17676-1.08154-0.28516-1.38525
		c-0.45996-0.30371-1.08008-0.17529-1.38477,0.28467l-1.65039,2.50537C40.21094,13.71387,40.33789,14.33398,40.7998,14.6377z"/>
	<path fill="#3b94d9" d="M21.81543,14.35303c0.19238,0.2915,0.51074,0.44971,0.83594,0.44971
		c0.18848,0,0.37988-0.05322,0.54883-0.16504c0.46191-0.30371,0.58887-0.92383,0.28516-1.38525l-1.65039-2.50537
		c-0.30371-0.45996-0.92383-0.58838-1.38477-0.28467c-0.46191,0.30371-0.58887,0.92383-0.28516,1.38525L21.81543,14.35303z"/>
</g>
</svg>
