<?xml version="1.0" encoding="utf-8"?>
<!-- Generator: Adobe Illustrator 24.0.2, SVG Export Plug-In . SVG Version: 6.00 Build 0)  -->
<svg version="1.1" id="Outline" xmlns="http://www.w3.org/2000/svg" xmlns:xlink="http://www.w3.org/1999/xlink" x="0px" y="0px"
	 viewBox="0 0 64 64" enable-background="new 0 0 64 64" xml:space="preserve">
<g>
	<path fill="#3b94d9" d="M19,55h-1c-0.55273,0-1,0.44727-1,1s0.44727,1,1,1h1c0.55273,0,1-0.44727,1-1S19.55273,55,19,55z"/>
	<path fill="#3b94d9" d="M23,55h-1c-0.55273,0-1,0.44727-1,1s0.44727,1,1,1h1c0.55273,0,1-0.44727,1-1S23.55273,55,23,55z"/>
	<path fill="#3b94d9" d="M50,54c-0.55273,0-1,0.44727-1,1v1c0,0.55273,0.44727,1,1,1s1-0.44727,1-1v-1
		C51,54.44727,50.55273,54,50,54z"/>
	<path fill="#3b94d9" d="M17.31152,33.28418c0.26563,0,0.51953-0.10547,0.70703-0.29297c0,0,4.62402-4.62451,4.62403-4.62452
		c0.24476-0.2448,0.33272-0.63333,0.24334-0.96202c-0.08922-0.32811-0.35613-0.62096-0.69061-0.71082
		c-0.52148-0.14014-0.97559-0.40039-1.34863-0.77344c-1.16992-1.16992-1.16992-3.07275,0-4.24268
		c1.13477-1.13379,3.1084-1.1333,4.24316-0.00049c0.37305,0.37402,0.63379,0.82764,0.77344,1.34913
		c0.09085,0.33984,0.37819,0.60309,0.71319,0.69103c0.32954,0.0865,0.7121,0.00379,0.95966-0.24377l4.62402-4.62451
		c0.39063-0.39063,0.39063-1.02344,0-1.41406l-3.61554-3.61591c0.28107-0.18463,0.54913-0.38867,0.78741-0.62677
		c1.94922-1.94971,1.94922-5.12158,0-7.0708c-0.94434-0.94482-2.2002-1.46533-3.53516-1.46533s-2.59082,0.52051-3.53613,1.46582
		c-0.23816,0.23798-0.4422,0.5058-0.62683,0.78668l-3.61536-3.61578c-0.375-0.375-1.03906-0.375-1.41406,0l-9.51758,9.51758
		L3.87598,16.021c-1.16895,1.16943-1.16895,3.07275,0,4.24219l12.72852,12.72803
		C16.79199,33.17871,17.0459,33.28418,17.31152,33.28418z M5.29004,17.43506c0,0,2.82892-2.82849,2.8291-2.82861l9.19238-9.19238
		c0,0,3.91478,3.91527,3.917,3.91749c0.19945,0.19946,0.49249,0.29872,0.77105,0.28051
		c0.39817-0.02603,0.80312-0.33309,0.90179-0.72778c0.13965-0.52148,0.40039-0.9751,0.77344-1.34863
		c1.13477-1.13379,3.1084-1.13379,4.24316,0c1.16895,1.16943,1.16895,3.07275,0,4.24219
		c-0.37304,0.37353-0.82714,0.63379-1.34864,0.77393c-0.2728,0.07332-0.50808,0.28314-0.62975,0.5335
		c-0.17656,0.36329-0.10691,0.84994,0.18249,1.13935l3.91699,3.91748l-2.90833,2.90869
		c-0.18463-0.28101-0.38867-0.54895-0.62683-0.78711c-0.94531-0.94482-2.20117-1.46533-3.53613-1.46533
		s-2.59082,0.52051-3.53516,1.46533c-1.94922,1.94922-1.94922,5.12158,0,7.07129c0.23828,0.23785,0.50623,0.44183,0.78729,0.6264
		l-2.90839,2.90875l-12.02148-12.021C4.90039,18.45947,4.90039,17.82471,5.29004,17.43506z"/>
	<path fill="#3b94d9" d="M56,25c-0.33667,0-0.67053,0.04523-1,0.11353V22c0-1.6543-1.3457-3-3-3H34c-0.55273,0-1,0.44775-1,1
		c0,0,0,6.53835,0,6.54004c0,0.409,0.29325,0.80201,0.67768,0.93494c0.25845,0.08937,0.58072,0.07037,0.82135-0.06824
		C34.96777,27.13672,35.47266,27,36,27c1.6543,0,3,1.3457,3,3s-1.3457,3-3,3c-0.52734,0-1.03223-0.13672-1.501-0.40675
		c-0.301-0.17254-0.70139-0.1538-0.99607,0.01789C33.21355,32.77975,33,33.11995,33,33.45996V39h-4.11365
		C28.95471,38.67053,29,38.33667,29,38c0-2.75684-2.24316-5-5-5s-5,2.24316-5,5c0,0.33667,0.04529,0.67053,0.11365,1H14
		c-0.55273,0-1,0.44727-1,1v5.11365C12.67053,45.04529,12.33667,45,12,45c-2.75684,0-5,2.24316-5,5s2.24316,5,5,5
		c0.33667,0,0.67053-0.04529,1-0.11365V58c0,1.6543,1.3457,3,3,3h18h6h0.54004H52c1.6543,0,3-1.3457,3-3V40v-5.11365
		C55.32947,34.95471,55.66333,35,56,35c2.75684,0,5-2.24316,5-5S58.75684,25,56,25z M33,59H16c-0.55176,0-1-0.44824-1-1v-4.54005
		c-0.00003-0.40931-0.29255-0.80209-0.67762-0.93499c-0.26322-0.09084-0.57494-0.06813-0.8214,0.06879
		C13.03223,52.86328,12.52734,53,12,53c-1.6543,0-3-1.3457-3-3s1.3457-3,3-3c0.52734,0,1.03222,0.13671,1.50097,0.40625
		c0.24128,0.13873,0.56081,0.15816,0.82031,0.06898C14.70233,47.34425,15,46.94932,15,46.54004V41c0,0,5.53781,0,5.54006,0
		c0.34642-0.00001,0.68037-0.21062,0.85093-0.50586c0.17243-0.29847,0.19169-0.68647,0.01526-0.99316
		C21.13672,39.03223,21,38.52734,21,38c0-1.6543,1.3457-3,3-3s3,1.3457,3,3c0,0.52734-0.13672,1.03223-0.40626,1.50099
		c-0.17305,0.30097-0.15693,0.69782,0.0152,0.99291C26.78424,40.79441,27.10805,41,27.45996,41H33v4.11365
		C32.67053,45.04529,32.33667,45,32,45c-2.75684,0-5,2.24316-5,5s2.24316,5,5,5c0.33667,0,0.67053-0.04529,1-0.11365V59z M53,58
		c0,0.55176-0.44824,1-1,1H40.54004H40h-5c0,0,0-5.54004,0-5.54006c-0.00003-0.34632-0.21112-0.6806-0.50622-0.85117
		c-0.29169-0.1686-0.69611-0.186-0.9928-0.01502C33.03223,52.86328,32.52734,53,32,53c-1.6543,0-3-1.3457-3-3s1.3457-3,3-3
		c0.52734,0,1.03223,0.13672,1.501,0.40627c0.24066,0.13836,0.5617,0.1582,0.82083,0.06889
		C34.70194,47.34417,35,46.9474,35,46.54004V41h4.11365C39.04529,41.32947,39,41.66333,39,42c0,2.75684,2.24316,5,5,5s5-2.24316,5-5
		c0-0.33667-0.04529-0.67053-0.11365-1H53V58z M56,33c-0.52734,0-1.03223-0.13672-1.50098-0.40674
		c-0.35377-0.20282-0.83883-0.14639-1.14598,0.11895C53.14732,32.88993,53,33.18517,53,33.45996V39c0,0-5.54004,0-5.54005,0
		c-0.40937,0.00005-0.80177,0.29258-0.93493,0.67743c-0.08968,0.25917-0.06913,0.58177,0.06873,0.82159
		C46.86328,40.96777,47,41.47266,47,42c0,1.6543-1.3457,3-3,3s-3-1.3457-3-3c0-0.52734,0.13672-1.03223,0.40627-1.501
		c0.14154-0.24544,0.16072-0.55542,0.06878-0.82138C41.34352,39.29718,40.94883,39,40.54004,39H35v-4.11365
		C35.32947,34.95471,35.66333,35,36,35c2.75684,0,5-2.24316,5-5s-2.24316-5-5-5c-0.33667,0-0.67053,0.04523-1,0.11353V21h17
		c0.55176,0,1,0.44873,1,1v4.54004c0.00001,0.40895,0.29324,0.80202,0.67767,0.93493
		c0.24485,0.08466,0.59251,0.06364,0.82136-0.06824C54.96777,27.13672,55.47266,27,56,27c1.6543,0,3,1.3457,3,3S57.6543,33,56,33z"
		/>
	<path fill="#3b94d9" d="M49,52c0,0.55273,0.44727,1,1,1s1-0.44727,1-1v-1c0-0.55273-0.44727-1-1-1s-1,0.44727-1,1V52z"/>
	<path fill="#3b94d9" d="M50,23h-1c-0.55273,0-1,0.44775-1,1s0.44727,1,1,1h1c0.55273,0,1-0.44775,1-1S50.55273,23,50,23z"/>
	<path fill="#3b94d9" d="M46,23h-1c-0.55273,0-1,0.44775-1,1s0.44727,1,1,1h1c0.55273,0,1-0.44775,1-1S46.55273,23,46,23z"/>
	<path fill="#3b94d9" d="M12.34668,20.24902c-0.39063-0.39063-1.02344-0.39063-1.41406,0s-0.39063,1.02344,0,1.41406
		c0,0,0.70682,0.70682,0.70703,0.70703c0.37939,0.37939,1.025,0.38907,1.41406,0c0.39063-0.39063,0.39063-1.02344,0-1.41406
		L12.34668,20.24902z"/>
	<path fill="#3b94d9" d="M9.51855,17.42041c-0.39063-0.39063-1.02344-0.39063-1.41406,0s-0.39063,1.02344,0,1.41406
		c0,0,0.7065,0.7065,0.70703,0.70703c0.3771,0.3771,1.02819,0.38587,1.41406,0c0.39063-0.39063,0.39063-1.02344,0-1.41406
		L9.51855,17.42041z"/>
</g>
</svg>
