<?xml version="1.0" encoding="utf-8"?>
<!-- Generator: Adobe Illustrator 24.0.2, SVG Export Plug-In . SVG Version: 6.00 Build 0)  -->
<svg version="1.1" id="Outline" xmlns="http://www.w3.org/2000/svg" xmlns:xlink="http://www.w3.org/1999/xlink" x="0px" y="0px"
	 viewBox="0 0 64 64" enable-background="new 0 0 64 64" xml:space="preserve">
<g>
	<path fill="#3b94d9" d="M59,41V9c0-1.10254-0.89746-2-2-2H41.66797l-0.69043-3.20996C40.87891,3.3291,40.47168,3,40,3h-4h-8h-4
		c-0.47168,0-0.87891,0.3291-0.97754,0.79004L22.33203,7H7C5.89746,7,5,7.89746,5,9v32c-1.10254,0-2,0.89746-2,2v2
		c0,1.10254,0.89746,2,2,2h8.76318l-2.57141,12H10c-0.55273,0-1,0.44727-1,1s0.44727,1,1,1h2h4h2c0.55273,0,1-0.44727,1-1
		s-0.44727-1-1-1h-0.76318l1.07141-5h27.38354l1.07141,5H46c-0.55273,0-1,0.44727-1,1s0.44727,1,1,1h2h4h2c0.55273,0,1-0.44727,1-1
		s-0.44727-1-1-1h-1.19177l-2.57141-12H59c1.10254,0,2-0.89746,2-2v-2C61,41.89746,60.10254,41,59,41z M28,5h8h3.19238l0.43018,2
		H24.37744l0.43018-2H28z M7,9h16.13965h17.7207H57v32H7V9z M13.2373,59l2.57098-12h1.95483l-2.57172,12H13.2373z M18.73682,52
		l1.07141-5h24.38354l1.07141,5H18.73682z M48.80859,59l-2.57172-12h1.95483l2.57098,12H48.80859z M50,45h-5H19h-4H5v-2h1h52h1
		l0.00195,2H50z"/>
	<path fill="#3b94d9" d="M41,22c-1.6543,0-3,1.3457-3,3s1.3457,3,3,3s3-1.3457,3-3S42.6543,22,41,22z M41,26
		c-0.55176,0-1-0.44824-1-1s0.44824-1,1-1s1,0.44824,1,1S41.55176,26,41,26z"/>
	<path fill="#3b94d9" d="M24,19c0.52148,0,1.00488-0.14563,1.43256-0.38062c0.02075-0.00842,0.0376-0.02155,0.05762-0.03131
		C26.38782,18.06903,27,17.10944,27,16c0-1.6543-1.3457-3-3-3s-3,1.3457-3,3S22.3457,19,24,19z M24,15c0.55176,0,1,0.44824,1,1
		s-0.44824,1-1,1s-1-0.44824-1-1S23.44824,15,24,15z"/>
	<path fill="#3b94d9" d="M32.2002,21.59961c0.32396,0.4318,0.96927,0.5228,1.39941,0.2002
		c0.44238-0.33105,0.53223-0.95801,0.2002-1.39941c0,0-2.99477-3.99303-3.00002-4.00003C30.61872,16.15906,30.29898,16,30,16
		c-0.2958,0-0.62149,0.16201-0.79981,0.40039l-3,4c-0.33203,0.44141-0.24219,1.06836,0.2002,1.39941
		c0.44238,0.33203,1.06836,0.24219,1.39941-0.2002L29,19.99988V21c0,6.69897-5.09467,12.22821-11.62988,12.91992
		c-0.02502,0-0.04596,0.01239-0.07056,0.01422C16.87195,33.97681,16.43866,34,16,34h-1.27832C14.37469,33.40521,13.73669,33,13,33
		c-1.10254,0-2,0.89746-2,2s0.89746,2,2,2c0.73669,0,1.37469-0.40521,1.72168-1H16c8.27148,0,15-6.72852,15-15v-1.00012
		C31,19.99988,32.19712,21.5955,32.2002,21.59961z"/>
	<path fill="#3b94d9" d="M52.37958,26.08196C52.26098,26.02948,52.13229,26,52,26h-2.82813c-0.55273,0-1,0.44727-1,1s0.44727,1,1,1
		h0.41406l-3.44006,3.44006c-0.66589-0.17511-1.4035-0.01056-1.92419,0.51013c-0.78027,0.7793-0.78027,2.04882,0,2.82812
		c0.83796,0.83691,2.29358,0.74792,3.00251-0.21338c0.37756-0.49896,0.48938-1.13007,0.33624-1.7113L51,29.41406v0.41406
		c0,0.55273,0.44727,1,1,1s1-0.44727,1-1c0,0,0-2.82244,0-2.82812C53,26.60336,52.73509,26.23929,52.37958,26.08196z"/>
	<path fill="#3b94d9" d="M13.29297,26.70703c0.37317,0.37317,1.02787,0.38619,1.41406,0L16,25.41406
		c0,0,1.29021,1.29021,1.29296,1.29296c0.38068,0.38068,1.03493,0.37914,1.41407,0c0.39063-0.39063,0.39063-1.02344,0-1.41406
		L17.41406,24l1.29297-1.29297c0.39063-0.39063,0.39063-1.02344,0-1.41406s-1.02344-0.39063-1.41406,0L16,22.58594l-1.29297-1.29297
		c-0.39063-0.39063-1.02344-0.39063-1.41406,0s-0.39063,1.02344,0,1.41406L14.58594,24l-1.29297,1.29297
		C12.90236,25.68358,12.90234,26.31635,13.29297,26.70703z"/>
	<path fill="#3b94d9" d="M37.70703,31.29297c-0.39063-0.39063-1.02344-0.39063-1.41406,0L35,32.58594l-1.29297-1.29297
		c-0.39063-0.39063-1.02344-0.39063-1.41406,0s-0.39063,1.02344,0,1.41406L33.58594,34l-1.29297,1.29297
		c-0.3906,0.3906-0.39063,1.02335-0.00008,1.41398c0.37107,0.37115,1.03105,0.38317,1.41414,0.00008L35,35.41406
		c0,0,1.29233,1.29233,1.29297,1.29297c0.386,0.386,1.02824,0.38583,1.41406,0c0.39063-0.39063,0.39063-1.02344,0-1.41406
		L36.41406,34l1.29297-1.29297C38.09766,32.31641,38.09766,31.68359,37.70703,31.29297z"/>
	<path fill="#3b94d9" d="M45.29297,18.70703c0.37207,0.37206,1.02993,0.38413,1.41406,0L48,17.41406
		c0,0,1.29021,1.29021,1.29296,1.29296c0.37388,0.37388,1.02765,0.38643,1.41407,0c0.39063-0.39063,0.39063-1.02344,0-1.41406
		L49.41406,16l1.29297-1.29297c0.39063-0.39063,0.39063-1.02344,0-1.41406s-1.02344-0.39063-1.41406,0L48,14.58594l-1.29297-1.29297
		c-0.39063-0.39063-1.02344-0.39063-1.41406,0s-0.39063,1.02344,0,1.41406L46.58594,16l-1.29297,1.29297
		C44.90237,17.68357,44.90234,18.31632,45.29297,18.70703z"/>
</g>
</svg>
