<?xml version="1.0" encoding="utf-8"?>
<!-- Generator: Adobe Illustrator 24.0.2, SVG Export Plug-In . SVG Version: 6.00 Build 0)  -->
<svg version="1.1" id="Outline" xmlns="http://www.w3.org/2000/svg" xmlns:xlink="http://www.w3.org/1999/xlink" x="0px" y="0px"
	 viewBox="0 0 64 64" enable-background="new 0 0 64 64" xml:space="preserve">
<path fill="#3b94d9" d="M52,59h-1.35034l-6.41742-14.43738C49.55353,40.5434,53,34.1673,53,27c0-12.13086-9.86914-22-22-22
	c-4.13812,0-8.12762,1.15619-11.60327,3.32593l-5.03296-5.03296c-0.2998-0.30029-0.75732-0.37891-1.14014-0.19434
	c-0.38281,0.18408-0.60791,0.58984-0.56055,1.01172l0.56885,5.12158L8.11035,8.66309
	C7.68848,8.61377,7.28271,8.84082,7.09863,9.22363s-0.10596,0.83984,0.19434,1.14014l5.02942,5.02942
	C10.15497,18.8678,9,22.85809,9,27c0,7.83282,4.11792,14.71808,10.29932,18.617L13.35034,59H12c-0.55225,0-1,0.44775-1,1
	s0.44775,1,1,1h2h6h2c0.55225,0,1-0.44775,1-1s-0.44775-1-1-1h-0.46118l0.44446-1h20.0343l0.44409,1H42c-0.55225,0-1,0.44775-1,1
	s0.44775,1,1,1h2h6h2c0.55225,0,1-0.44775,1-1S52.55225,59,52,59z M21.68292,19.09698l1.57874,1.57874
	C21.84961,22.40033,21,24.60229,21,27c0,5.51416,4.48584,10,10,10s10-4.48584,10-10s-4.48584-10-10-10
	c-2.39771,0-4.59967,0.84961-6.32428,2.26166l-1.57874-1.57874l-0.22888-2.06024C25.25604,13.91193,28.05212,13,31,13
	c7.71973,0,14,6.28027,14,14s-6.28027,14-14,14s-14-6.28027-14-14c0-2.94788,0.91193-5.74396,2.62268-8.1319L21.68292,19.09698z
	 M27.56683,24.9809C27.21545,25.57587,27,26.26044,27,27c0,2.20557,1.79443,4,4,4s4-1.79443,4-4s-1.79443-4-4-4
	c-0.73956,0-1.42413,0.21545-2.0191,0.56683l-2.87848-2.87848C27.45752,19.6344,29.15436,19,31,19c4.41113,0,8,3.58887,8,8
	s-3.58887,8-8,8s-8-3.58887-8-8c0-1.84564,0.6344-3.54248,1.68835-4.89758L27.56683,24.9809z M30.29297,27.70703
	C30.48828,27.90234,30.74414,28,31,28s0.51172-0.09766,0.70703-0.29297c0.39063-0.39063,0.39063-1.02344,0-1.41406l-1.21844-1.21844
	C30.65283,25.03076,30.82214,25,31,25c1.10303,0,2,0.89697,2,2s-0.89697,2-2,2s-2-0.89697-2-2
	c0-0.17786,0.03076-0.34717,0.07452-0.51141L30.29297,27.70703z M20.47998,12.2373l0.35352,3.18213L15.31866,9.9046
	l-0.35333-3.18195L20.47998,12.2373z M13.9046,11.31866l5.51483,5.51483l-3.18213-0.35352l-5.51465-5.51465L13.9046,11.31866z
	 M11,27c0-3.60931,0.95996-7.09326,2.77277-10.15643l1.29852,1.29852c0.16064,0.16064,0.37109,0.26172,0.59668,0.28662
	l1.71741,0.1908C15.82654,21.138,15,24.00024,15,27c0,8.82227,7.17773,16,16,16s16-7.17773,16-16s-7.17773-16-16-16
	c-2.99976,0-5.862,0.82648-8.38049,2.38531l-0.1908-1.71735c-0.0249-0.22559-0.12598-0.43604-0.28662-0.59668l-1.2948-1.2948
	C23.91132,7.96136,27.39404,7,31,7c11.02783,0,20,8.97217,20,20s-8.97217,20-20,20S11,38.02783,11,27z M31,49
	c2.28931,0,4.49768-0.35236,6.57477-1.00421L39.35303,52H24.6499l1.5686-3.52948C27.75903,48.81342,29.35773,49,31,49z M15.53906,59
	l5.50732-12.39026c1.0296,0.52472,2.10425,0.97247,3.21893,1.33179l-2.07251,4.66284
	c-0.00183,0.00427-0.00378,0.00818-0.00555,0.01251l-1.76874,3.97931c-0.00427,0.00964-0.00867,0.01862-0.01263,0.02844L19.3501,59
	H15.53906z M22.87213,56l0.88885-2h16.48022l0.88818,2H22.87213z M44.6499,59l-1.05658-2.37933
	c-0.00287-0.00696-0.00604-0.01337-0.00903-0.02026l-4.12689-9.2934c1.07867-0.45093,2.11292-0.98621,3.09692-1.59607L48.46094,59
	H44.6499z"/>
</svg>
